<?xml version="1.0" encoding="UTF-8"?>
<svg id="Layer_2" data-name="Layer 2" xmlns="http://www.w3.org/2000/svg" viewBox="0 0 260 260">
  <defs>
    <style>
      .cls-1 {
        fill: #27272a;
      }

      .cls-2 {
        fill: #8b5cf6;
        fill-rule: evenodd;
        opacity: .5;
      }
    </style>
  </defs>
  <g id="Layer_1-2" data-name="Layer 1">
    <rect class="cls-1" width="260" height="260"/>
    <path class="cls-2" d="M51.57,85.54c0-9.23,7.48-16.71,16.71-16.71h122.57c9.23,0,16.71,7.48,16.71,16.71v89.14c0,9.23-7.48,16.71-16.71,16.71h-122.57c-9.23,0-16.71-7.48-16.71-16.71v-89.14ZM62.72,160.27v14.41c0,3.08,2.5,5.57,5.57,5.57h122.57c3.08,0,5.57-2.49,5.57-5.57v-14.41l-19.98-19.98c-4.35-4.35-11.4-4.35-15.75,0l-6.54,6.53,7.21,7.21c2.25,2.1,2.38,5.62.28,7.87s-5.62,2.38-7.87.28c-.1-.09-.19-.18-.28-.28l-38.33-38.32c-4.35-4.35-11.4-4.35-15.75,0l-36.7,36.7h0ZM137.93,102.26c0-4.62,3.74-8.36,8.36-8.36s8.36,3.74,8.36,8.36-3.74,8.36-8.36,8.36-8.36-3.74-8.36-8.36Z"/>
  </g>
</svg>