<?xml version="1.0" encoding="UTF-8"?>
<svg id="Layer_2" data-name="Layer 2" xmlns="http://www.w3.org/2000/svg" viewBox="0 0 718.3 447.15">
  <defs>
    <style>
      .cls-1 {
        fill: #fff;
      }
    </style>
  </defs>
  <g id="Layer_2-2" data-name="Layer 2">
    <g>
      <rect class="cls-1" x="330.28" y="84.39" width="58" height="58" rx="6" ry="6"/>
      <path class="cls-1" d="M402.44,231.17l129.17-55.95c2.19-.95,3.62-3.11,3.62-5.51v-63.72h0V6c0-3.31-2.69-6-6-6H188.64c-3.31,0-6,2.69-6,6v164.07c0,2.39,1.42,4.56,3.62,5.51l129.17,55.95c1.99.86,1.38,3.84-.79,3.84h-124.61c-3.31,0-6,2.69-6,6v112.93c0,2.3,1.32,4.4,3.39,5.4l49.35,23.87c3.98,1.93,8.61-.98,8.61-5.4v-75.46c0-3.31,2.69-6,6-6h69.68c3.31,0,6,2.69,6,6v117.08c0,2.39,1.42,4.56,3.62,5.51l49.35,21.37c3.96,1.72,8.38-1.19,8.38-5.51v-138.19c0-3.31,2.69-6,6-6h73.57c3.31,0,6,2.69,6,6v115.13c0,4.33,4.44,7.23,8.41,5.5l49.69-21.75c2.18-.96,3.59-3.11,3.59-5.5v-155.34c0-3.31-2.69-6-6-6h-126.43c-2.17,0-2.79-2.97-.79-3.84ZM473.37,67.69v61.09c0,2.4-1.42,4.56-3.62,5.51l-108.56,46.82c-1.51.65-3.23.65-4.75,0l-110.45-47.51c-.63-.27-1.38-.89-1.38-1.58V63.35c0-.96.77-1.74,1.73-1.74l221.04.08c3.31,0,6,2.69,6,6Z"/>
      <path class="cls-1" d="M573.08,34.94h59.87c2.39,0,4.56,1.42,5.51,3.62l79.35,183.75c.66,1.52.66,3.24,0,4.76l-79.35,183.75c-.95,2.2-3.11,3.62-5.51,3.62h-59.87c-4.31,0-7.22-4.42-5.51-8.38l77.3-179c.66-1.52.66-3.24,0-4.76l-77.3-179c-1.71-3.96,1.19-8.38,5.51-8.38Z"/>
      <path class="cls-1" d="M145.22,34.94h-59.87c-2.39,0-4.56,1.42-5.51,3.62L.49,222.31c-.66,1.52-.66,3.24,0,4.76l79.35,183.75c.95,2.2,3.11,3.62,5.51,3.62h59.87c4.31,0,7.22-4.42,5.51-8.38l-77.3-179c-.66-1.52-.66-3.24,0-4.76L150.73,43.32c1.71-3.96-1.19-8.38-5.51-8.38Z"/>
    </g>
  </g>
</svg>